HIERARCHY
ROOT Hips
{
	OFFSET -20.575302 -32.078365 87.152718
	CHANNELS 6 Xposition Yposition Zposition Zrotation Yrotation Xrotation
	JOINT Spine
	{
		OFFSET 0.000000 2.080107 8.814247
		CHANNELS 6 Xposition Yposition Zposition Zrotation Yrotation Xrotation
		JOINT Spine1
		{
			OFFSET 0.000000 0.000000 8.844139
			CHANNELS 6 Xposition Yposition Zposition Zrotation Yrotation Xrotation
			JOINT Spine2
			{
				OFFSET 0.000000 0.000002 11.682266
				CHANNELS 6 Xposition Yposition Zposition Zrotation Yrotation Xrotation
				JOINT Spine3
				{
					OFFSET 0.000000 0.000000 11.746696
					CHANNELS 6 Xposition Yposition Zposition Zrotation Yrotation Xrotation
					JOINT Neck
					{
						OFFSET 0.000000 0.000002 17.658264
						CHANNELS 6 Xposition Yposition Zposition Zrotation Yrotation Xrotation
						JOINT Neck1
						{
							OFFSET 0.000000 0.000000 5.101517
							CHANNELS 6 Xposition Yposition Zposition Zrotation Yrotation Xrotation
							JOINT Head
							{
								OFFSET 0.000000 0.000000 5.101517
								CHANNELS 6 Xposition Yposition Zposition Zrotation Yrotation Xrotation
								JOINT HeadEnd
								{
									OFFSET 0.000000 0.000002 11.655090
									CHANNELS 6 Xposition Yposition Zposition Zrotation Yrotation Xrotation
									End Site
									{
										OFFSET 0.000000 0.000000 0.100006
									}
								}
							}
						}
					}
					JOINT RightShoulder
					{
						OFFSET -2.625389 0.000002 11.175217
						CHANNELS 6 Xposition Yposition Zposition Zrotation Yrotation Xrotation
						JOINT RightArm
						{
							OFFSET 0.000000 0.000000 10.434723
							CHANNELS 6 Xposition Yposition Zposition Zrotation Yrotation Xrotation
							JOINT RightForeArm
							{
								OFFSET 0.000000 0.000002 29.628418
								CHANNELS 6 Xposition Yposition Zposition Zrotation Yrotation Xrotation
								JOINT RightHand
								{
									OFFSET 0.000000 0.000002 22.857605
									CHANNELS 6 Xposition Yposition Zposition Zrotation Yrotation Xrotation
									JOINT RightHandThumb1
									{
										OFFSET -2.867323 -2.944292 3.959564
										CHANNELS 6 Xposition Yposition Zposition Zrotation Yrotation Xrotation
										JOINT RightHandThumb2
										{
											OFFSET 0.000000 0.000000 3.350403
											CHANNELS 6 Xposition Yposition Zposition Zrotation Yrotation Xrotation
											JOINT RightHandThumb3
											{
												OFFSET 0.000000 0.000000 3.756516
												CHANNELS 6 Xposition Yposition Zposition Zrotation Yrotation Xrotation
												JOINT RightHandThumb4
												{
													OFFSET 0.000000 0.000000 3.147339
													CHANNELS 6 Xposition Yposition Zposition Zrotation Yrotation Xrotation
													End Site
													{
														OFFSET 0.000000 0.000000 0.100006
													}
												}
											}
										}
									}
									JOINT RightHandIndex1
									{
										OFFSET -0.086752 -2.345282 10.030899
										CHANNELS 6 Xposition Yposition Zposition Zrotation Yrotation Xrotation
										JOINT RightHandIndex2
										{
											OFFSET 0.000000 0.000000 4.061096
											CHANNELS 6 Xposition Yposition Zposition Zrotation Yrotation Xrotation
											JOINT RightHandIndex3
											{
												OFFSET 0.000000 0.000000 3.248871
												CHANNELS 6 Xposition Yposition Zposition Zrotation Yrotation Xrotation
												JOINT RightHandIndex4
												{
													OFFSET 0.000000 0.000000 2.639709
													CHANNELS 6 Xposition Yposition Zposition Zrotation Yrotation Xrotation
													End Site
													{
														OFFSET 0.000000 0.000000 0.100006
													}
												}
											}
										}
									}
									JOINT RightHandMiddle1
									{
										OFFSET 0.104101 -0.006767 9.502945
										CHANNELS 6 Xposition Yposition Zposition Zrotation Yrotation Xrotation
										JOINT RightHandMiddle2
										{
											OFFSET 0.000000 0.000002 4.568726
											CHANNELS 6 Xposition Yposition Zposition Zrotation Yrotation Xrotation
											JOINT RightHandMiddle3
											{
												OFFSET 0.000000 0.000000 3.654984
												CHANNELS 6 Xposition Yposition Zposition Zrotation Yrotation Xrotation
												JOINT RightHandMiddle4
												{
													OFFSET 0.000000 0.000000 2.741241
													CHANNELS 6 Xposition Yposition Zposition Zrotation Yrotation Xrotation
													End Site
													{
														OFFSET 0.000000 0.000000 0.100006
													}
												}
											}
										}
									}
									JOINT RightHandRing1
									{
										OFFSET 0.086752 2.267443 8.921707
										CHANNELS 6 Xposition Yposition Zposition Zrotation Yrotation Xrotation
										JOINT RightHandRing2
										{
											OFFSET 0.000000 0.000002 4.061096
											CHANNELS 6 Xposition Yposition Zposition Zrotation Yrotation Xrotation
											JOINT RightHandRing3
											{
												OFFSET 0.000000 0.000000 3.654984
												CHANNELS 6 Xposition Yposition Zposition Zrotation Yrotation Xrotation
												JOINT RightHandRing4
												{
													OFFSET 0.000000 0.000000 2.741241
													CHANNELS 6 Xposition Yposition Zposition Zrotation Yrotation Xrotation
													End Site
													{
														OFFSET 0.000000 0.000000 0.100006
													}
												}
											}
										}
									}
									JOINT RightHandPinky1
									{
										OFFSET -0.173504 4.467199 7.976990
										CHANNELS 6 Xposition Yposition Zposition Zrotation Yrotation Xrotation
										JOINT RightHandPinky2
										{
											OFFSET 0.000000 0.000000 3.350403
											CHANNELS 6 Xposition Yposition Zposition Zrotation Yrotation Xrotation
											JOINT RightHandPinky3
											{
												OFFSET 0.000000 0.000002 2.842758
												CHANNELS 6 Xposition Yposition Zposition Zrotation Yrotation Xrotation
												JOINT RightHandPinky4
												{
													OFFSET 0.000000 0.000000 2.639709
													CHANNELS 6 Xposition Yposition Zposition Zrotation Yrotation Xrotation
													End Site
													{
														OFFSET 0.000000 0.000000 0.100006
													}
												}
											}
										}
									}
									JOINT RightForeArmEnd
									{
										OFFSET 0.000000 0.000000 0.000000
										CHANNELS 6 Xposition Yposition Zposition Zrotation Yrotation Xrotation
										End Site
										{
											OFFSET 0.000000 0.000000 0.100006
										}
									}
								}
								JOINT RightArmEnd
								{
									OFFSET 0.000000 0.000000 0.000000
									CHANNELS 6 Xposition Yposition Zposition Zrotation Yrotation Xrotation
									End Site
									{
										OFFSET 0.000000 0.000000 0.100006
									}
								}
							}
						}
					}
					JOINT LeftShoulder
					{
						OFFSET 2.625389 0.000002 11.175217
						CHANNELS 6 Xposition Yposition Zposition Zrotation Yrotation Xrotation
						JOINT LeftArm
						{
							OFFSET 0.000000 0.000000 10.813629
							CHANNELS 6 Xposition Yposition Zposition Zrotation Yrotation Xrotation
							JOINT LeftForeArm
							{
								OFFSET 0.000000 0.000002 28.724777
								CHANNELS 6 Xposition Yposition Zposition Zrotation Yrotation Xrotation
								JOINT LeftHand
								{
									OFFSET 0.644384 0.328873 25.716171
									CHANNELS 6 Xposition Yposition Zposition Zrotation Yrotation Xrotation
									JOINT LeftHandThumb1
									{
										OFFSET 2.867323 -2.944290 3.959564
										CHANNELS 6 Xposition Yposition Zposition Zrotation Yrotation Xrotation
										JOINT LeftHandThumb2
										{
											OFFSET 0.000000 0.000000 3.350403
											CHANNELS 6 Xposition Yposition Zposition Zrotation Yrotation Xrotation
											JOINT LeftHandThumb3
											{
												OFFSET 0.000000 0.000000 3.756516
												CHANNELS 6 Xposition Yposition Zposition Zrotation Yrotation Xrotation
												JOINT LeftHandThumb4
												{
													OFFSET 0.000000 0.000000 3.100006
													CHANNELS 6 Xposition Yposition Zposition Zrotation Yrotation Xrotation
													End Site
													{
														OFFSET 0.000000 0.000000 0.100006
													}
												}
											}
										}
									}
									JOINT LeftHandIndex1
									{
										OFFSET 0.086752 -2.345280 10.030899
										CHANNELS 6 Xposition Yposition Zposition Zrotation Yrotation Xrotation
										JOINT LeftHandIndex2
										{
											OFFSET 0.000000 0.000000 4.061096
											CHANNELS 6 Xposition Yposition Zposition Zrotation Yrotation Xrotation
											JOINT LeftHandIndex3
											{
												OFFSET 0.000000 0.000000 3.248871
												CHANNELS 6 Xposition Yposition Zposition Zrotation Yrotation Xrotation
												JOINT LeftHandIndex4
												{
													OFFSET 0.000000 0.000000 2.639709
													CHANNELS 6 Xposition Yposition Zposition Zrotation Yrotation Xrotation
													End Site
													{
														OFFSET 0.000000 0.000000 0.100006
													}
												}
											}
										}
									}
									JOINT LeftHandMiddle1
									{
										OFFSET -0.104101 -0.006767 9.502945
										CHANNELS 6 Xposition Yposition Zposition Zrotation Yrotation Xrotation
										JOINT LeftHandMiddle2
										{
											OFFSET 0.000000 0.000002 4.568726
											CHANNELS 6 Xposition Yposition Zposition Zrotation Yrotation Xrotation
											JOINT LeftHandMiddle3
											{
												OFFSET 0.000000 0.000000 3.654984
												CHANNELS 6 Xposition Yposition Zposition Zrotation Yrotation Xrotation
												JOINT LeftHandMiddle4
												{
													OFFSET 0.000000 0.000000 2.741241
													CHANNELS 6 Xposition Yposition Zposition Zrotation Yrotation Xrotation
													End Site
													{
														OFFSET 0.000000 0.000000 0.100006
													}
												}
											}
										}
									}
									JOINT LeftHandRing1
									{
										OFFSET -0.086752 2.267443 8.921707
										CHANNELS 6 Xposition Yposition Zposition Zrotation Yrotation Xrotation
										JOINT LeftHandRing2
										{
											OFFSET 0.000000 0.000002 4.061096
											CHANNELS 6 Xposition Yposition Zposition Zrotation Yrotation Xrotation
											JOINT LeftHandRing3
											{
												OFFSET 0.000000 0.000000 3.654984
												CHANNELS 6 Xposition Yposition Zposition Zrotation Yrotation Xrotation
												JOINT LeftHandRing4
												{
													OFFSET 0.000000 0.000000 2.741241
													CHANNELS 6 Xposition Yposition Zposition Zrotation Yrotation Xrotation
													End Site
													{
														OFFSET 0.000000 0.000000 0.100006
													}
												}
											}
										}
									}
									JOINT LeftHandPinky1
									{
										OFFSET 0.173504 4.467199 7.976990
										CHANNELS 6 Xposition Yposition Zposition Zrotation Yrotation Xrotation
										JOINT LeftHandPinky2
										{
											OFFSET 0.000000 0.000002 3.350403
											CHANNELS 6 Xposition Yposition Zposition Zrotation Yrotation Xrotation
											JOINT LeftHandPinky3
											{
												OFFSET 0.000000 0.000000 2.842758
												CHANNELS 6 Xposition Yposition Zposition Zrotation Yrotation Xrotation
												JOINT LeftHandPinky4
												{
													OFFSET 0.000000 0.000000 2.639709
													CHANNELS 6 Xposition Yposition Zposition Zrotation Yrotation Xrotation
													End Site
													{
														OFFSET 0.000000 0.000000 0.100006
													}
												}
											}
										}
									}
									JOINT LeftForeArmEnd
									{
										OFFSET 0.000000 0.000000 0.000000
										CHANNELS 6 Xposition Yposition Zposition Zrotation Yrotation Xrotation
										End Site
										{
											OFFSET 0.000000 0.000000 0.100006
										}
									}
								}
								JOINT LeftArmEnd
								{
									OFFSET 0.000000 0.000000 0.000000
									CHANNELS 6 Xposition Yposition Zposition Zrotation Yrotation Xrotation
									End Site
									{
										OFFSET 0.000000 0.000000 0.100006
									}
								}
							}
						}
					}
				}
			}
		}
	}
	JOINT RightUpLeg
	{
		OFFSET -11.289944 0.000000 0.000000
		CHANNELS 6 Xposition Yposition Zposition Zrotation Yrotation Xrotation
		JOINT RightLeg
		{
			OFFSET 0.000000 -0.000004 -38.200321
			CHANNELS 6 Xposition Yposition Zposition Zrotation Yrotation Xrotation
			JOINT RightFoot
			{
				OFFSET 0.000000 -0.000004 -39.900856
				CHANNELS 6 Xposition Yposition Zposition Zrotation Yrotation Xrotation
				JOINT RightToeBase
				{
					OFFSET 0.000000 -15.261639 0.000001
					CHANNELS 6 Xposition Yposition Zposition Zrotation Yrotation Xrotation
					JOINT RightToeBaseEnd
					{
						OFFSET 0.000000 -7.370708 0.000000
						CHANNELS 6 Xposition Yposition Zposition Zrotation Yrotation Xrotation
						End Site
						{
							OFFSET 0.000000 0.000000 0.100000
						}
					}
				}
				JOINT RightLegEnd
				{
					OFFSET 0.000000 0.000000 0.000000
					CHANNELS 6 Xposition Yposition Zposition Zrotation Yrotation Xrotation
					End Site
					{
						OFFSET 0.000000 0.000000 0.100000
					}
				}
			}
			JOINT RightUpLegEnd
			{
				OFFSET 0.000000 0.000000 0.000000
				CHANNELS 6 Xposition Yposition Zposition Zrotation Yrotation Xrotation
				End Site
				{
					OFFSET 0.000000 0.000000 0.099998
				}
			}
		}
	}
	JOINT LeftUpLeg
	{
		OFFSET 11.315661 0.000000 0.000000
		CHANNELS 6 Xposition Yposition Zposition Zrotation Yrotation Xrotation
		JOINT LeftLeg
		{
			OFFSET 0.000000 -0.000004 -38.200321
			CHANNELS 6 Xposition Yposition Zposition Zrotation Yrotation Xrotation
			JOINT LeftFoot
			{
				OFFSET 0.000000 -0.000004 -39.900856
				CHANNELS 6 Xposition Yposition Zposition Zrotation Yrotation Xrotation
				JOINT LeftToeBase
				{
					OFFSET 0.000000 -15.261639 0.000001
					CHANNELS 6 Xposition Yposition Zposition Zrotation Yrotation Xrotation
					JOINT LeftToeBaseEnd
					{
						OFFSET 0.000000 -7.539997 0.000000
						CHANNELS 6 Xposition Yposition Zposition Zrotation Yrotation Xrotation
						End Site
						{
							OFFSET 0.000000 0.000000 0.100000
						}
					}
				}
				JOINT LeftLegEnd
				{
					OFFSET 0.000000 0.000000 0.000000
					CHANNELS 6 Xposition Yposition Zposition Zrotation Yrotation Xrotation
					End Site
					{
						OFFSET 0.000000 0.000000 0.100000
					}
				}
			}
			JOINT LeftUpLegEnd
			{
				OFFSET 0.000000 0.000000 0.000000
				CHANNELS 6 Xposition Yposition Zposition Zrotation Yrotation Xrotation
				End Site
				{
					OFFSET 0.000000 0.000000 0.099998
				}
			}
		}
	}
}
MOTION
Frames: 2
Frame Time: 0.016667
14.169064 -55.427826 87.729500 88.335397 5.509249 -8.290518 0.000004 2.080117 8.814234 0.788295 2.241439 4.504344 -0.000001 0.000000 8.844145 -5.350421 -14.636079 13.941275 0.000000 0.000005 11.682261 12.223949 20.337833 5.173677 -0.000000 0.000003 11.746695 2.793352 0.777892 -0.139647 0.000002 0.000008 17.658270 -14.998286 -18.563254 9.280099 0.000002 0.000000 5.101482 -13.604946 5.244181 -11.840241 -0.000001 0.000004 5.101485 3.271128 -2.440773 -25.728663 0.000006 0.000006 11.655076 0.000001 0.000000 -0.000001 -2.625393 0.000007 11.175221 6.745351 -95.739185 -0.378706 -0.000013 0.000000 10.434708 61.584592 -24.182794 -13.889413 -0.000001 -0.000012 29.628405 17.396903 -0.749407 132.294590 0.000029 0.000005 22.857592 15.941440 43.836762 16.114718 -2.867327 -2.944322 3.959557 31.729852 -22.942040 43.364209 0.000016 -0.000011 3.350403 -25.337461 11.058764 -43.400620 -0.000008 0.000007 3.756513 -16.725393 9.787723 -29.562175 -0.000002 0.000005 3.147339 -0.000002 -0.000000 0.000000 -0.086760 -2.345294 10.030899 -31.448797 -55.514388 30.812312 -0.000008 0.000012 4.061115 -2.280338 -41.921037 7.249678 -0.000002 -0.000017 3.248875 -2.780332 -41.921082 7.249684 0.000012 -0.000010 2.639709 -0.000004 -0.000000 0.000000 0.104093 -0.006770 9.502947 -32.214669 -65.359515 33.890804 0.000004 0.000016 4.568711 -1.025229 -48.445005 3.389419 0.000012 -0.000001 3.654953 -1.525211 -48.445015 3.389410 0.000014 -0.000016 2.741212 -0.000001 0.000001 -0.000001 0.086738 2.267439 8.921721 -146.188943 -80.048758 158.552979 -0.000008 -0.000004 4.061089 4.799118 -67.802359 -8.620675 -0.000032 -0.000010 3.654984 5.799107 -67.802420 -8.620658 -0.000001 0.000004 2.741241 -0.000001 -0.000003 -0.000003 -0.173509 4.467196 7.976964 172.263641 -62.918118 -160.151626 0.000011 0.000000 3.350410 33.937113 -74.860697 -45.926465 -0.000007 -0.000001 2.842764 35.937010 -74.860724 -45.926370 -0.000002 0.000013 2.639725 -0.000003 0.000000 -0.000000 -0.000001 -0.000002 -0.000013 0.000000 -0.000001 -0.000005 0.000013 0.000009 -0.000000 0.000004 0.000000 0.000001 2.625391 0.000008 11.175218 -2.180925 87.161178 -0.268390 -0.000006 0.000001 10.813623 59.617532 57.980786 35.042330 -0.000003 -0.000016 28.724796 -20.415958 3.587299 59.014877 0.644379 0.328871 25.716187 -22.955392 -19.740290 0.321448 2.867330 -2.944314 3.959580 -31.678134 22.563439 43.884423 -0.000006 0.000012 3.350430 24.496509 -11.026119 -42.059799 -0.000013 0.000004 3.756510 16.165864 -9.630653 -28.648699 0.000005 -0.000002 3.099991 0.000000 -0.000000 -0.000001 0.086757 -2.345275 10.030901 0.966517 58.882610 -12.763725 0.000012 -0.000004 4.061108 -2.362568 42.374094 -7.371853 0.000015 -0.000001 3.248865 -2.862331 42.374118 -7.371871 -0.000000 -0.000001 2.639709 -0.000001 -0.000002 -0.000000 -0.104118 -0.006758 9.502959 11.453656 61.397308 -0.665956 0.000018 0.000000 4.568747 -0.673459 43.951987 -2.902634 0.000008 0.000000 3.654994 -1.157482 43.952151 -2.889117 0.000005 -0.000004 2.741243 0.000002 0.000003 -0.000001 -0.086734 2.267445 8.921719 36.917388 66.386461 30.566907 0.000012 -0.000001 4.061086 0.879391 49.360824 4.088848 0.000023 -0.000004 3.654987 1.860115 49.361186 4.070500 0.000005 -0.000001 2.741225 -0.000002 0.000001 0.000002 0.173497 4.467195 7.976992 55.884881 62.332914 57.531073 -0.000002 0.000004 3.350392 4.698485 51.123464 13.951472 0.000008 -0.000003 2.842758 6.698518 51.123481 13.951503 -0.000002 -0.000006 2.639694 0.000002 0.000003 0.000001 0.000004 -0.000003 0.000029 0.000002 0.000002 0.000003 -0.000001 0.000003 0.000016 0.000001 0.000000 -0.000001 -11.289940 0.000000 0.000012 -18.821151 12.679627 7.012774 -0.000012 -0.000006 -38.200317 -1.666729 0.607208 19.905717 -0.000003 -0.000000 -39.900856 -17.912840 -8.742881 30.087362 -0.000003 -15.261635 0.000011 -0.884119 -0.323422 -34.377739 -0.000004 -7.370697 0.000002 -0.000000 -0.000000 -0.000001 -0.000004 -0.000002 0.000006 -0.000003 0.000004 -0.000000 0.000000 -0.000004 -0.000001 -0.000000 0.000000 0.000001 11.315660 -0.000005 -0.000000 0.833849 0.172491 7.766304 0.000007 -0.000007 -38.200314 0.176141 -0.045144 14.374888 0.000003 -0.000006 -39.900852 -1.007803 -9.731568 13.282229 -0.000001 -15.261639 0.000000 0.630868 0.013798 -26.678394 -0.000003 -7.540001 0.000001 -0.000000 -0.000000 -0.000000 -0.000002 -0.000004 0.000001 -0.000000 0.000000 0.000001 0.000001 -0.000000 0.000004 -0.000000 0.000000 -0.000001 
14.065628 -55.401772 87.728508 89.917910 5.720706 -8.165256 0.000004 2.080105 8.814229 0.801050 2.377687 4.315762 -0.000003 -0.000003 8.844147 -5.406452 -14.719053 14.102035 0.000001 0.000002 11.682266 11.984541 20.360355 4.929228 0.000005 -0.000001 11.746692 2.712795 0.628250 -0.160665 0.000001 0.000000 17.658268 -15.255909 -18.529043 9.279810 0.000005 -0.000004 5.101523 -13.793443 5.233589 -11.867245 -0.000008 0.000000 5.101510 3.290852 -2.538652 -25.642989 0.000001 0.000007 11.655059 0.000000 0.000000 0.000002 -2.625390 0.000004 11.175199 6.126419 -95.849663 -0.368616 -0.000011 0.000000 10.434723 62.105066 -22.867374 -15.091052 0.000010 -0.000004 29.628405 16.501100 -0.695571 133.118024 0.000002 0.000010 22.857622 19.297082 44.314377 20.687487 -2.867325 -2.944277 3.959569 31.758160 -23.131880 43.104173 0.000024 -0.000024 3.350404 -25.758139 11.067892 -44.071099 0.000009 -0.000011 3.756512 -17.006292 9.862927 -30.019699 0.000003 -0.000002 3.147309 -0.000000 0.000001 0.000000 -0.086757 -2.345277 10.030894 -31.944692 -55.959292 31.377766 0.000018 -0.000002 4.061130 -2.344719 -42.294106 7.345708 0.000009 -0.000011 3.248877 -2.844726 -42.293996 7.345691 -0.000009 0.000005 2.639736 -0.000001 -0.000002 0.000005 0.104090 -0.006773 9.502960 -32.997573 -65.843153 34.848458 -0.000006 -0.000010 4.568730 -1.062770 -48.860667 3.439431 -0.000008 -0.000001 3.654986 -1.562738 -48.860663 3.439405 -0.000001 0.000005 2.741243 -0.000002 0.000002 -0.000002 0.086745 2.267431 8.921697 -148.173400 -79.512828 160.817323 -0.000015 0.000004 4.061095 4.973151 -68.227415 -8.808352 -0.000005 0.000000 3.654956 5.973143 -68.227463 -8.808331 0.000015 -0.000011 2.741243 -0.000004 0.000002 -0.000001 -0.173520 4.467199 7.976981 172.352939 -62.416700 -160.016524 -0.000023 -0.000006 3.350401 34.790064 -75.071620 -46.809633 -0.000020 0.000023 2.842732 36.789953 -75.071675 -46.809581 -0.000001 -0.000007 2.639740 0.000001 0.000001 -0.000000 -0.000007 0.000004 0.000014 -0.000000 -0.000000 0.000002 -0.000004 0.000012 0.000014 0.000004 -0.000002 0.000000 2.625408 0.000002 11.175198 -2.224716 87.275966 -0.274836 0.000008 0.000007 10.813624 59.617395 57.966709 34.982627 0.000000 -0.000021 28.724770 -20.387213 3.584740 59.330022 0.644381 0.328872 25.716162 -22.807566 -19.741530 0.459001 2.867324 -2.944303 3.959579 -31.678134 22.563439 43.884403 -0.000004 0.000011 3.350417 24.496506 -11.026140 -42.059776 -0.000006 0.000005 3.756496 16.165871 -9.630650 -28.648699 -0.000002 -0.000001 3.100008 -0.000002 0.000002 -0.000003 0.086759 -2.345277 10.030902 0.961491 58.886558 -12.697395 0.000015 -0.000001 4.061122 -2.360916 42.369794 -7.369424 0.000020 0.000000 3.248880 -2.860727 42.369791 -7.369498 0.000003 0.000002 2.639709 0.000002 0.000001 0.000001 -0.104086 -0.006761 9.502947 11.454436 61.401031 -0.610076 0.000029 0.000001 4.568751 -0.676215 43.952267 -2.906596 0.000000 0.000001 3.654988 -1.156975 43.952377 -2.888821 -0.000003 0.000008 2.741242 0.000001 -0.000001 -0.000002 -0.086725 2.267445 8.921719 36.927032 66.389589 30.563553 0.000019 -0.000005 4.061104 0.881918 49.363464 4.092208 -0.000004 -0.000006 3.654983 1.859328 49.363758 4.071966 0.000007 -0.000005 2.741241 -0.000001 -0.000003 -0.000002 0.173510 4.467200 7.977001 55.933782 62.346260 57.480850 0.000001 -0.000005 3.350399 4.703608 51.126001 13.958058 0.000008 -0.000002 2.842757 6.703015 51.125875 13.957628 0.000003 -0.000001 2.639709 0.000002 0.000000 0.000002 0.000002 -0.000001 0.000014 -0.000002 -0.000002 0.000002 0.000002 0.000003 -0.000001 -0.000001 0.000000 0.000001 -11.289938 -0.000007 0.000006 -18.975527 12.575825 6.948275 0.000003 -0.000001 -38.200310 -1.680306 0.609103 19.919861 0.000003 0.000001 -39.900856 -18.480216 -8.891030 30.191451 0.000001 -15.261648 0.000003 -0.852301 -0.346300 -34.445218 -0.000004 -7.370704 0.000001 -0.000001 -0.000001 0.000001 -0.000005 -0.000018 0.000001 0.000003 0.000002 -0.000003 -0.000001 -0.000001 0.000000 -0.000002 0.000000 -0.000000 11.315666 -0.000009 -0.000007 0.355572 0.224517 7.299588 -0.000003 -0.000011 -38.200325 0.165546 -0.042982 14.534427 -0.000000 -0.000004 -39.900864 -1.341340 -9.788537 13.334623 -0.000002 -15.261642 0.000005 0.624508 0.019443 -26.641998 0.000001 -7.540001 0.000001 -0.000000 -0.000000 0.000000 0.000001 -0.000004 0.000002 0.000000 0.000000 0.000000 0.000000 -0.000004 -0.000000 -0.000000 -0.000000 0.000000 
